<?xml version="1.0" standalone="no"?>
<!DOCTYPE svg PUBLIC "-//W3C//DTD SVG 20010904//EN"
 "http://www.w3.org/TR/2001/REC-SVG-20010904/DTD/svg10.dtd">
<svg version="1.0" xmlns="http://www.w3.org/2000/svg"
 width="928.000000pt" height="928.000000pt" viewBox="0 0 928.000000 928.000000"
 preserveAspectRatio="xMidYMid meet">
<metadata>
Created by potrace 1.14, written by Peter Selinger 2001-2017
</metadata>
<g transform="translate(0.000000,928.000000) scale(0.100000,-0.100000)"
fill="#000000" stroke="none">
<path d="M2009 9275 c-2 -1 -20 -5 -39 -8 -85 -12 -228 -56 -257 -80 -7 -5
-13 -6 -13 -2 0 5 -9 0 -20 -10 -11 -10 -20 -15 -20 -11 0 13 -175 -112 -231
-166 -61 -58 -153 -180 -184 -243 -11 -22 -25 -47 -32 -56 -7 -8 -14 -24 -16
-35 -1 -10 -5 -23 -8 -29 -8 -12 -29 -78 -28 -85 0 -3 -4 -17 -10 -32 -18 -48
-26 -119 -26 -243 0 -141 7 -189 41 -295 66 -209 180 -373 352 -508 98 -76
272 -161 363 -176 19 -3 45 -8 59 -11 101 -23 285 -23 388 0 12 3 32 7 43 10
259 56 528 270 650 517 30 60 70 157 74 178 1 3 4 19 8 35 25 105 29 145 29
260 -1 61 -3 117 -5 125 -3 14 -14 64 -21 100 -2 8 -5 22 -8 30 -3 8 -12 35
-19 60 -20 70 -94 207 -154 285 -61 80 -122 140 -205 201 -58 43 -190 118
-190 109 0 -3 -10 1 -22 9 -23 14 -130 47 -198 61 -36 7 -295 16 -301 10z"/>
<path d="M4237 7134 c-1 -1 -31 -4 -67 -8 -174 -14 -326 -69 -475 -169 -78
-53 -202 -176 -253 -252 -50 -75 -110 -194 -118 -234 -4 -17 -11 -31 -17 -31
-6 0 -8 -3 -5 -6 3 -3 0 -29 -8 -57 -26 -94 -35 -283 -18 -373 3 -22 8 -48 9
-59 1 -11 5 -27 9 -35 3 -8 8 -26 10 -40 3 -14 5 -26 7 -27 1 -2 2 -6 4 -10
19 -69 115 -252 137 -261 5 -2 8 -8 8 -13 0 -18 128 -152 188 -196 20 -15 39
-30 42 -34 23 -26 237 -127 285 -135 6 -1 28 -6 50 -12 22 -6 54 -14 70 -18
17 -4 437 -8 935 -10 498 -1 917 -3 932 -3 l27 -1 -2 -1442 -2 -1443 -1442 -2
-1443 -3 -1 898 c0 493 -2 920 -5 947 -2 28 -13 84 -24 125 -12 41 -22 80 -23
87 -2 7 -6 16 -10 19 -4 4 -7 16 -7 26 0 10 -5 18 -12 18 -6 0 -9 3 -5 6 8 8
-56 124 -107 194 -52 72 -159 176 -233 226 -93 64 -236 128 -332 149 -11 3
-29 7 -38 9 -44 9 -123 17 -183 17 -212 1 -390 -54 -578 -178 -62 -41 -232
-209 -232 -228 0 -7 -7 -18 -15 -25 -28 -23 -145 -260 -128 -260 3 0 0 -7 -7
-15 -7 -8 -10 -15 -7 -15 5 0 -2 -31 -21 -94 -4 -11 -7 -471 -9 -1021 -2
-1066 -1 -1088 48 -1300 11 -49 23 -97 25 -105 3 -8 5 -17 6 -20 0 -3 4 -13
10 -23 5 -10 11 -29 14 -41 7 -39 83 -218 130 -305 63 -117 127 -212 216 -326
129 -162 348 -350 538 -462 89 -52 237 -125 280 -138 14 -4 39 -13 55 -20 44
-19 131 -46 168 -52 18 -3 34 -9 35 -14 2 -5 7 -7 11 -5 4 3 25 1 47 -5 21 -5
55 -11 74 -15 19 -3 42 -7 50 -9 60 -16 355 -19 1705 -20 1379 0 1619 3 1720
20 66 11 80 14 80 15 0 1 9 3 20 4 163 21 495 152 653 257 24 16 45 29 48 29
6 0 149 105 183 134 67 57 244 239 289 296 29 36 57 70 62 77 6 7 10 15 10 19
0 4 8 16 18 27 64 71 225 400 257 527 1 3 5 12 8 20 12 28 46 175 53 225 3 28
7 52 9 55 16 28 20 357 20 1720 -1 872 -4 1610 -7 1640 -6 48 -12 81 -32 187
-8 41 -58 218 -64 228 -4 6 -8 18 -9 27 -5 30 -93 223 -138 303 -25 43 -45 80
-45 82 0 2 -5 9 -10 16 -6 7 -23 31 -38 54 -123 188 -379 442 -553 548 -94 57
-176 104 -184 105 -5 1 -17 7 -25 15 -8 7 -51 28 -95 46 -44 18 -84 36 -89 41
-6 4 -19 8 -31 8 -12 0 -25 4 -31 8 -11 10 -175 57 -254 72 -114 23 -157 28
-275 36 -75 5 -1843 12 -1848 8z"/>
</g>
</svg>
